<?xml version="1.0" encoding="UTF-8" standalone="no"?>
<!DOCTYPE svg PUBLIC "-//W3C//DTD SVG 1.1//EN" "http://www.w3.org/Graphics/SVG/1.1/DTD/svg11.dtd">
<svg width="100%" height="100%" viewBox="0 0 1033 1179" version="1.1" xmlns="http://www.w3.org/2000/svg" xmlns:xlink="http://www.w3.org/1999/xlink" xml:space="preserve" xmlns:serif="http://www.serif.com/" style="fill-rule:evenodd;clip-rule:evenodd;stroke-linejoin:round;stroke-miterlimit:2;">
    <g transform="matrix(0.735584,0,0,0.55366,493.753,577.307)">
        <ellipse cx="30.923" cy="21.547" rx="625.657" ry="780.453" style="fill:rgb(216,227,230);"/>
        <clipPath id="_clip1">
            <ellipse cx="30.923" cy="21.547" rx="625.657" ry="780.453"/>
        </clipPath>
        <g clip-path="url(#_clip1)">
            <g transform="matrix(1.11407,0,0,1.48014,-784.342,-632.095)">
                <g id="Knight">
                    <g id="Shadow" transform="matrix(1.03849,0,0,0.648968,-20.2017,272.109)">
                        <ellipse cx="702.539" cy="843.448" rx="327.86" ry="48.534" style="fill:rgb(111,120,153);fill-opacity:0.2;"/>
                    </g>
                    <g id="Legs" transform="matrix(1,0,0,1,-26.8069,32.9045)">
                        <g transform="matrix(1.08404,0,0,0.872235,-488.084,252.997)">
                            <path d="M1092.34,407.912C1092.34,388.992 1079.97,373.632 1064.75,373.632C1049.53,373.632 1037.17,388.992 1037.17,407.912L1037.17,494.815C1037.17,513.734 1049.53,529.095 1064.75,529.095C1079.97,529.095 1092.34,513.734 1092.34,494.815L1092.34,407.912Z" style="fill:rgb(93,103,127);"/>
                        </g>
                        <g transform="matrix(-1.08404,0,0,0.872235,1928.08,252.997)">
                            <path d="M1092.34,407.912C1092.34,388.992 1079.97,373.632 1064.75,373.632C1049.53,373.632 1037.17,388.992 1037.17,407.912L1037.17,494.815C1037.17,513.734 1049.53,529.095 1064.75,529.095C1079.97,529.095 1092.34,513.734 1092.34,494.815L1092.34,407.912Z" style="fill:rgb(93,103,127);"/>
                        </g>
                        <g transform="matrix(1.08404,0,0,0.872235,-487.554,320.797)">
                            <path d="M1092.34,407.912C1090.14,393.411 1079.97,373.632 1064.75,373.632C1049.53,373.632 1039.37,393.411 1037.17,407.912C1034.11,428.109 1046.39,494.815 1046.39,494.815C1046.39,513.734 1049.53,529.095 1064.75,529.095C1079.97,529.095 1083.11,513.734 1083.11,494.815C1083.11,494.815 1095.39,428.109 1092.34,407.912Z" style="fill:rgb(192,199,213);"/>
                        </g>
                        <g transform="matrix(-1.08404,0,0,0.872235,1927.55,320.797)">
                            <path d="M1092.34,407.912C1090.14,393.411 1079.97,373.632 1064.75,373.632C1049.53,373.632 1039.37,393.411 1037.17,407.912C1034.11,428.109 1046.39,494.815 1046.39,494.815C1046.39,513.734 1049.53,529.095 1064.75,529.095C1079.97,529.095 1083.11,513.734 1083.11,494.815C1083.11,494.815 1095.39,428.109 1092.34,407.912Z" style="fill:rgb(192,199,213);"/>
                        </g>
                        <g transform="matrix(0.63027,0,0,0.491995,291.353,406.278)">
                            <path d="M626.437,688.247L636.468,778.695L458.449,778.695L626.437,688.247Z" style="fill:rgb(192,199,213);"/>
                        </g>
                        <g transform="matrix(-0.63027,0,0,0.491995,1148.65,406.278)">
                            <path d="M626.437,688.247L636.468,778.695L458.449,778.695L626.437,688.247Z" style="fill:rgb(192,199,213);"/>
                        </g>
                        <g transform="matrix(1.13455,0,0,1.36296,572.13,97.3125)">
                            <ellipse cx="179.46" cy="427.425" rx="34.86" ry="29.018" style="fill:rgb(111,120,153);"/>
                        </g>
                        <g transform="matrix(1.13455,0,0,1.36296,461.033,99.4825)">
                            <ellipse cx="179.46" cy="427.425" rx="34.86" ry="29.018" style="fill:rgb(111,120,153);"/>
                        </g>
                    </g>
                    <g id="Sword" transform="matrix(0.775583,0.182831,-0.173533,0.736141,497.649,-127.352)">
                        <g transform="matrix(1.48879,0,0,1.89859,-311.888,-31.4412)">
                            <path d="M731.93,107L693.107,48.569L654.283,107L667.717,338.857L718.497,338.857L731.93,107Z" style="fill:rgb(193,199,216);"/>
                            <g>
                                <clipPath id="_clip2">
                                    <path d="M731.93,107L693.107,48.569L654.283,107L667.717,338.857L718.497,338.857L731.93,107Z"/>
                                </clipPath>
                                <g clip-path="url(#_clip2)">
                                    <g transform="matrix(0.576017,0,0,0.541972,278.375,16.0112)">
                                        <rect x="720" y="35.976" width="135.15" height="738.596" style="fill:rgb(93,104,130);"/>
                                    </g>
                                </g>
                            </g>
                        </g>
                        <g transform="matrix(0.871021,0,9.08431e-17,0.74624,-61.9914,305.325)">
                            <path d="M919.176,430.533C919.176,416.773 910.092,405.601 898.903,405.601C887.713,405.601 878.629,416.773 878.629,430.533L878.629,577.313C878.629,591.073 887.713,602.245 898.903,602.245C910.092,602.245 919.176,591.073 919.176,577.313L919.176,430.533Z" style="fill:rgb(163,37,37);"/>
                        </g>
                        <g transform="matrix(4.52797,0,3.08149e-33,0.226807,-3350.21,497.614)">
                            <path d="M919.176,503.923C919.176,449.658 917.082,405.601 914.502,405.601L883.303,405.601C880.723,405.601 878.629,449.658 878.629,503.923C878.629,558.188 880.723,602.245 883.303,602.245L914.502,602.245C917.082,602.245 919.176,558.188 919.176,503.923Z" style="fill:rgb(163,37,37);"/>
                        </g>
                    </g>
                    <g id="Arms" transform="matrix(1,0,0,1,-25.876,64.7546)">
                        <g transform="matrix(0.530181,-0.945541,0.760798,0.426592,-83.5986,1210.1)">
                            <path d="M1092.34,407.912C1092.34,388.992 1079.97,373.632 1064.75,373.632C1049.53,373.632 1037.17,388.992 1037.17,407.912L1037.17,494.815C1037.17,513.734 1049.53,529.095 1064.75,529.095C1079.97,529.095 1092.34,513.734 1092.34,494.815L1092.34,407.912Z" style="fill:rgb(92,103,129);"/>
                        </g>
                        <g transform="matrix(-0.530181,-0.945541,-0.760798,0.426592,1523.6,1210.1)">
                            <path d="M1092.34,407.912C1092.34,388.992 1079.97,373.632 1064.75,373.632C1049.53,373.632 1037.17,388.992 1037.17,407.912L1037.17,494.815C1037.17,513.734 1049.53,529.095 1064.75,529.095C1079.97,529.095 1092.34,513.734 1092.34,494.815L1092.34,407.912Z" style="fill:rgb(92,103,129);"/>
                        </g>
                        <g transform="matrix(0.33442,-1.03117,0.829693,0.269079,171.065,1406.36)">
                            <path d="M1092.34,407.912C1090.14,393.411 1079.97,373.632 1064.75,373.632C1049.53,373.632 1039.37,393.411 1037.17,407.912C1034.11,428.109 1046.39,494.815 1046.39,494.815C1046.39,513.734 1049.53,529.095 1064.75,529.095C1079.97,529.095 1083.11,513.734 1083.11,494.815C1083.11,494.815 1095.39,428.109 1092.34,407.912Z" style="fill:rgb(190,199,216);"/>
                        </g>
                        <g transform="matrix(-0.859843,-0.660159,-0.531175,0.691844,1715.52,835.229)">
                            <path d="M1092.34,407.912C1090.14,393.411 1079.97,373.632 1064.75,373.632C1049.53,373.632 1039.37,393.411 1037.17,407.912C1034.11,428.109 1046.39,494.815 1046.39,494.815C1046.39,513.734 1049.53,529.095 1064.75,529.095C1079.97,529.095 1083.11,513.734 1083.11,494.815C1083.11,494.815 1095.39,428.109 1092.34,407.912Z" style="fill:rgb(190,199,216);"/>
                        </g>
                        <g transform="matrix(0.193015,-0.796418,0.326434,0.0791125,559.173,1331.41)">
                            <path d="M1203.57,511.076C1203.57,491.81 1197.16,476.168 1189.26,476.168L1141.85,476.168C1133.95,476.168 1127.54,491.81 1127.54,511.076L1127.54,580.892C1127.54,600.158 1133.95,615.8 1141.85,615.8L1189.26,615.8C1197.16,615.8 1203.57,600.158 1203.57,580.892L1203.57,511.076Z" style="fill:rgb(190,199,216);"/>
                        </g>
                        <g transform="matrix(-0.614266,-0.542414,-0.222323,0.251774,1359.91,983.994)">
                            <path d="M1203.57,511.076C1203.57,491.81 1197.16,476.168 1189.26,476.168L1141.85,476.168C1133.95,476.168 1127.54,491.81 1127.54,511.076L1127.54,580.892C1127.54,600.158 1133.95,615.8 1141.85,615.8L1189.26,615.8C1197.16,615.8 1203.57,600.158 1203.57,580.892L1203.57,511.076Z" style="fill:rgb(190,199,216);"/>
                        </g>
                    </g>
                    <g id="Body">
                        <g transform="matrix(0.937795,0,0,0.820519,-35.6229,99.4569)">
                            <path d="M929.751,666.076C891.603,700.223 662.715,700.223 624.567,666.076C586.419,631.929 662.715,495.341 700.863,461.194C738.762,427.27 815.556,427.27 853.455,461.194C891.603,495.341 967.899,631.929 929.751,666.076Z" style="fill:rgb(192,199,213);"/>
                        </g>
                        <g transform="matrix(1.13455,0,0,1.36296,562.392,-146.626)">
                            <ellipse cx="179.46" cy="427.425" rx="34.86" ry="29.018" style="fill:rgb(111,120,153);"/>
                        </g>
                        <g transform="matrix(1.13455,0,0,1.36296,426.326,-151.757)">
                            <ellipse cx="179.46" cy="427.425" rx="34.86" ry="29.018" style="fill:rgb(111,120,153);"/>
                        </g>
                        <g transform="matrix(0.656487,0,0,0.820519,182.998,7.81377)">
                            <path d="M929.751,666.076C891.603,700.223 662.715,700.223 624.567,666.076C586.419,631.929 662.715,495.341 700.863,461.194C738.762,427.27 815.556,427.27 853.455,461.194C891.603,495.341 967.899,631.929 929.751,666.076Z" style="fill:rgb(139,149,177);"/>
                        </g>
                    </g>
                    <g id="Helmet" transform="matrix(1,0,0,1,-25.876,64.7546)">
                        <g transform="matrix(0.38469,-0.217926,0.341419,0.602684,491.47,182.639)">
                            <ellipse cx="376.522" cy="91.366" rx="39.468" ry="16.602" style="fill:rgb(141,151,180);"/>
                        </g>
                        <g transform="matrix(0.668895,0,0,1.59013,402.051,-19.3637)">
                            <path d="M376.522,107.969C359.725,107.969 335.717,96.828 334.871,97.408C317.23,109.515 264.066,102.082 271.558,71.638C274.492,59.715 305.209,52.192 334.871,52.192C364.534,52.192 407.586,56.404 388.617,74.8C388.378,75.032 406.148,89.608 406.148,97.001C406.148,106.164 398.305,107.969 376.522,107.969Z" style="fill:rgb(163,36,37);"/>
                        </g>
                        <g transform="matrix(1.30525,0,0,1.30525,-55.6302,-179.044)">
                            <circle cx="593.528" cy="328.292" r="81.977" style="fill:rgb(193,199,216);"/>
                        </g>
                        <g transform="matrix(2.14159,0.498363,-0.548028,2.35501,-893.136,-378.26)">
                            <path d="M787.271,44.908C787.271,44.908 741.769,83.108 741.769,99.479C741.769,122.317 762.158,140.858 787.271,140.858C812.384,140.858 832.773,122.317 832.773,99.479C832.773,83.108 787.271,44.908 787.271,44.908Z" style="fill:rgb(141,151,180);"/>
                        </g>
                    </g>
                    <g id="Face" transform="matrix(1,0,0,1,-19.7356,52.0896)">
                        <circle cx="728.86" cy="269.123" r="78.321" style="fill:rgb(224,152,130);"/>
                        <g>
                            <clipPath id="_clip3">
                                <circle cx="728.86" cy="269.123" r="78.321"/>
                            </clipPath>
                            <g clip-path="url(#_clip3)">
                                <g transform="matrix(0.51932,0,0,0.682345,444.741,8.99408)">
                                    <ellipse cx="439.451" cy="224.864" rx="144.42" ry="109.915" style="fill:rgb(94,53,31);"/>
                                </g>
                                <g transform="matrix(1.66877,0,0,1.88222,-388.621,-165.492)">
                                    <ellipse cx="695.309" cy="219.061" rx="4.434" ry="3.932"/>
                                </g>
                                <g transform="matrix(1.56333,0,0,1.69736,-407.109,-166.178)">
                                    <ellipse cx="737.302" cy="261.407" rx="11.994" ry="4.949" style="fill:rgb(193,97,68);"/>
                                </g>
                                <g transform="matrix(1.66877,0,0,1.88222,-451.621,-165.492)">
                                    <ellipse cx="695.309" cy="219.061" rx="4.434" ry="3.932"/>
                                </g>
                            </g>
                        </g>
                    </g>
                    <g id="Face-Shield" serif:id="Face Shield" transform="matrix(1,0,0,1,-25.876,64.7546)">
                        <g transform="matrix(-1.55544,-0.249142,0.230994,-1.44215,1922.84,625.524)">
                            <path d="M834.378,116.981C839.939,109.273 842.867,100.53 842.867,91.631C842.867,63.648 814.475,40.93 779.503,40.93C744.531,40.93 716.139,63.648 716.139,91.631C716.139,100.53 719.067,109.273 724.628,116.981L834.378,116.981Z" style="fill:rgb(193,199,216);"/>
                        </g>
                        <g transform="matrix(1.02692,0,0,0.915143,72.3157,121.651)">
                            <ellipse cx="567.963" cy="153.827" rx="5.989" ry="6.72" style="fill:rgb(93,104,130);"/>
                        </g>
                        <g transform="matrix(0.444916,0.074242,-0.0864382,0.518006,453.65,190.204)">
                            <path d="M537.44,60.038C535.901,52.509 515.922,52.509 514.384,60.038C510.541,78.844 510.541,154.065 514.384,172.87C515.922,180.4 535.901,180.4 537.44,172.87C541.283,154.065 541.283,78.844 537.44,60.038Z" style="fill:rgb(93,104,130);"/>
                        </g>
                        <g transform="matrix(0.444916,0.074242,-0.110353,0.66132,483.466,186.444)">
                            <path d="M537.44,60.038C535.901,52.509 515.922,52.509 514.384,60.038C510.541,78.844 510.541,154.065 514.384,172.87C515.922,180.4 535.901,180.4 537.44,172.87C541.283,154.065 541.283,78.844 537.44,60.038Z" style="fill:rgb(93,104,130);"/>
                        </g>
                        <g transform="matrix(0.444916,0.074242,-0.127013,0.761162,512.876,185.115)">
                            <path d="M537.44,60.038C535.901,52.509 515.922,52.509 514.384,60.038C510.541,78.844 510.541,154.065 514.384,172.87C515.922,180.4 535.901,180.4 537.44,172.87C541.283,154.065 541.283,78.844 537.44,60.038Z" style="fill:rgb(93,104,130);"/>
                        </g>
                        <g transform="matrix(0.444916,0.074242,-0.110353,0.66132,540.261,195.921)">
                            <path d="M537.44,60.038C535.901,52.509 515.922,52.509 514.384,60.038C510.541,78.844 510.541,154.065 514.384,172.87C515.922,180.4 535.901,180.4 537.44,172.87C541.283,154.065 541.283,78.844 537.44,60.038Z" style="fill:rgb(93,104,130);"/>
                        </g>
                        <g transform="matrix(0.444916,0.074242,-0.0864382,0.518006,567.24,209.158)">
                            <path d="M537.44,60.038C535.901,52.509 515.922,52.509 514.384,60.038C510.541,78.844 510.541,154.065 514.384,172.87C515.922,180.4 535.901,180.4 537.44,172.87C541.283,154.065 541.283,78.844 537.44,60.038Z" style="fill:rgb(93,104,130);"/>
                        </g>
                    </g>
                    <g id="Shield" transform="matrix(0.872292,0,0,0.863834,-98.4248,223.977)">
                        <g transform="matrix(0.710318,0,0,0.813915,109.274,3.07709)">
                            <path d="M1052.24,304.763L667.343,304.763L667.343,546.68C667.343,546.68 795.642,691.926 859.792,691.926C923.942,691.926 1052.24,546.68 1052.24,546.68L1052.24,304.763Z" style="fill:rgb(93,104,130);"/>
                        </g>
                        <g transform="matrix(0.571664,1.73472e-18,-1.73472e-18,0.655039,228.488,82.2519)">
                            <path d="M1052.24,304.763L667.343,304.763L667.343,546.68C667.343,546.68 795.642,691.926 859.792,691.926C923.942,691.926 1052.24,546.68 1052.24,546.68L1052.24,304.763Z" style="fill:rgb(193,199,216);"/>
                        </g>
                        <g transform="matrix(1.55668,0,0,1.57192,501.526,-390.665)">
                            <g transform="matrix(0.421975,0.906608,-0.906608,0.421975,524.978,229.595)">
                                <text x="82.434px" y="526.5px" style="font-family:'BarthonStamp', 'Barthon  Stamp';font-weight:600;font-size:17.168px;fill:rgb(93,104,130);">M</text>
                            </g>
                            <g transform="matrix(0.567502,0.823372,-0.823372,0.567502,479.883,160.128)">
                                <text x="87.519px" y="536.854px" style="font-family:'BarthonStamp', 'Barthon  Stamp';font-weight:600;font-size:17.168px;fill:rgb(93,104,130);">A</text>
                            </g>
                            <g transform="matrix(0.68492,0.728618,-0.728618,0.68492,426.057,103.824)">
                                <text x="92.983px" y="544.537px" style="font-family:'BarthonStamp', 'Barthon  Stamp';font-weight:600;font-size:17.168px;fill:rgb(93,104,130);">R</text>
                            </g>
                            <g transform="matrix(0.78704,0.616902,-0.616902,0.78704,361.277,56.0144)">
                                <text x="99.507px" y="551.281px" style="font-family:'BarthonStamp', 'Barthon  Stamp';font-weight:600;font-size:17.168px;fill:rgb(93,104,130);">T</text>
                            </g>
                            <g transform="matrix(0.854823,0.51892,-0.51892,0.854823,304.55,25.276)">
                                <text x="107.102px" y="556.929px" style="font-family:'BarthonStamp', 'Barthon  Stamp';font-weight:600;font-size:17.168px;fill:rgb(93,104,130);">I</text>
                            </g>
                            <g transform="matrix(0.911039,0.41232,-0.41232,0.911039,240.66,3.8113)">
                                <text x="111.498px" y="559.617px" style="font-family:'BarthonStamp', 'Barthon  Stamp';font-weight:600;font-size:17.168px;fill:rgb(93,104,130);">N</text>
                            </g>
                            <g transform="matrix(0.983827,0.179122,-0.179122,0.983827,103.205,-13.2905)">
                                <text x="125.201px" y="564.867px" style="font-family:'BarthonStamp', 'Barthon  Stamp';font-weight:600;font-size:17.168px;fill:rgb(93,104,130);">E</text>
                            </g>
                            <g transform="matrix(0.999698,0.0245569,-0.0245569,0.999698,13.9498,-3.13132)">
                                <text x="134.468px" y="566.409px" style="font-family:'BarthonStamp', 'Barthon  Stamp';font-weight:600;font-size:17.168px;fill:rgb(93,104,130);">R</text>
                            </g>
                            <g transform="matrix(0.995424,-0.0955616,0.0955616,0.995424,-53.4672,16.3481)">
                                <text x="143.948px" y="566.398px" style="font-family:'BarthonStamp', 'Barthon  Stamp';font-weight:600;font-size:17.168px;fill:rgb(93,104,130);">I</text>
                            </g>
                            <g transform="matrix(0.976531,-0.215375,0.215375,0.976531,-118.388,45.3854)">
                                <text x="149.061px" y="565.926px" style="font-family:'BarthonStamp', 'Barthon  Stamp';font-weight:600;font-size:17.168px;fill:rgb(93,104,130);">C</text>
                            </g>
                            <g transform="matrix(0.895352,-0.445359,0.445359,0.895352,-233.182,131.473)">
                                <text x="163.169px" y="561.922px" style="font-family:'BarthonStamp', 'Barthon  Stamp';font-weight:600;font-size:17.168px;fill:rgb(93,104,130);">C</text>
                            </g>
                            <g transform="matrix(0.816232,-0.577725,0.577725,0.816232,-290.624,201.563)">
                                <text x="171.522px" y="557.609px" style="font-family:'BarthonStamp', 'Barthon  Stamp';font-weight:600;font-size:17.168px;fill:rgb(93,104,130);">O</text>
                            </g>
                            <g transform="matrix(0.7191,-0.694907,0.694907,0.7191,-333.314,279.546)">
                                <text x="179.122px" y="552.059px" style="font-family:'BarthonStamp', 'Barthon  Stamp';font-weight:600;font-size:17.168px;fill:rgb(93,104,130);">N</text>
                            </g>
                            <g transform="matrix(0.606377,-0.795177,0.795177,0.606377,-360.581,362.425)">
                                <text x="185.786px" y="545.426px" style="font-family:'BarthonStamp', 'Barthon  Stamp';font-weight:600;font-size:17.168px;fill:rgb(93,104,130);">N</text>
                            </g>
                            <g transform="matrix(0.480029,-0.877253,0.877253,0.480029,-372.328,447.563)">
                                <text x="191.382px" y="537.862px" style="font-family:'BarthonStamp', 'Barthon  Stamp';font-weight:600;font-size:17.168px;fill:rgb(93,104,130);">O</text>
                            </g>
                            <g transform="matrix(0.342917,-0.939366,0.939366,0.342917,-368.803,531.863)">
                                <text x="195.774px" y="529.552px" style="font-family:'BarthonStamp', 'Barthon  Stamp';font-weight:600;font-size:17.168px;fill:rgb(93,104,130);">R</text>
                            </g>
                        </g>
                        <g transform="matrix(1.27353,0,0,1.27353,-232.862,-132.322)">
                            <path d="M764.286,353.573L796.451,376.942L780.368,399.077L806.39,407.532L794.104,445.343L768.083,436.888L768.083,464.249L728.325,464.249L728.325,436.888L702.304,445.343L690.018,407.532L716.04,399.077L699.957,376.942L732.122,353.573L748.204,375.708L764.286,353.573Z" style="fill:rgb(163,37,37);"/>
                        </g>
                    </g>
                </g>
            </g>
        </g>
    </g>
</svg>
